<?xml version="1.0" standalone="no"?>
<!DOCTYPE svg PUBLIC "-//W3C//DTD SVG 20010904//EN"
 "http://www.w3.org/TR/2001/REC-SVG-20010904/DTD/svg10.dtd">
<svg version="1.0" xmlns="http://www.w3.org/2000/svg"
 width="330.000000pt" height="330.000000pt" viewBox="0 0 330.000000 330.000000"
 preserveAspectRatio="xMidYMid meet">
<metadata>
Created by potrace 1.14, written by Peter Selinger 2001-2017
</metadata>
<g transform="translate(0.000000,330.000000) scale(0.100000,-0.100000)"
fill="#000000" stroke="none">
<path d="M1580 3193 c-320 -28 -588 -176 -780 -431 -69 -92 -149 -249 -165
-322 -1 -8 -8 -33 -14 -55 -5 -22 -14 -67 -18 -100 -10 -78 -10 -1201 0 -1282
44 -357 314 -698 661 -836 186 -75 410 -92 633 -48 83 16 226 74 314 127 75
45 235 189 298 268 106 132 188 337 207 516 9 78 9 1192 0 1235 -3 17 -9 50
-12 75 -14 111 -112 337 -171 398 -7 7 -13 17 -13 22 0 17 -198 208 -255 246
-196 131 -344 178 -580 187 -38 1 -86 1 -105 0z"/>
</g>
</svg>
