<svg version="1.0" xmlns="http://www.w3.org/2000/svg"
 width="727.000000pt" height="1057.000000pt" viewBox="0 0 727.000000 1057.000000"
 preserveAspectRatio="xMidYMid meet">
    <g transform="translate(0.000000,1057.000000) scale(0.100000,-0.100000)"
    fill="#000000" stroke="none">
    <path d="M3405 10559 c-719 -30 -1417 -293 -2000 -755 -142 -113 -516 -487
    -629 -629 -375 -473 -611 -997 -711 -1575 -51 -291 -48 -194 -52 -2215 -4
    -2006 -4 -2052 43 -2355 94 -611 329 -1142 719 -1630 440 -549 975 -945 1590
    -1176 434 -163 993 -245 1461 -215 417 26 738 90 1074 213 812 297 1542 946
    1968 1750 162 305 300 734 351 1093 41 288 42 355 38 2310 -4 2015 -2 1933
    -53 2230 -72 418 -244 872 -465 1222 -374 594 -946 1114 -1534 1393 -555 264
    -1105 367 -1800 339z m1020 -4104 c305 -69 596 -230 890 -491 256 -228 492
    -548 617 -836 55 -126 120 -328 154 -473 49 -215 34 -336 -52 -401 l-37 -29
    -931 0 -931 0 -40 22 c-22 11 -49 32 -61 45 -50 56 -49 24 -49 1063 0 929 1
    972 19 1018 20 50 72 103 109 112 64 14 156 5 312 -30z m-1345 25 c0 -5 11
    -10 25 -10 14 0 25 -4 25 -10 0 -5 7 -10 16 -10 20 0 44 -24 44 -45 0 -9 5
    -13 10 -10 6 3 10 -1 10 -9 0 -9 5 -16 11 -16 6 0 8 -7 5 -15 -3 -9 1 -35 9
    -58 13 -36 15 -177 15 -947 0 -662 -3 -916 -12 -945 -6 -22 -10 -48 -9 -57 3
    -27 -46 -98 -68 -98 -6 0 -11 -4 -11 -10 0 -6 -42 -10 -105 -10 -63 0 -105 4
    -105 10 0 6 -20 10 -45 10 -25 0 -45 5 -45 10 0 6 -13 10 -30 10 -16 0 -30 4
    -30 8 0 4 -17 9 -37 10 -21 2 -39 7 -41 12 -2 6 -12 10 -23 10 -10 0 -19 4
    -19 8 0 4 -12 9 -27 10 -16 1 -29 7 -31 12 -2 6 -12 10 -23 10 -10 0 -19 5
    -19 11 0 5 -4 8 -9 4 -5 -3 -15 0 -23 7 -7 7 -24 15 -37 16 -13 2 -31 11 -39
    19 -13 12 -13 16 -1 23 7 5 10 12 6 16 -4 4 -13 -1 -20 -10 -11 -15 -16 -16
    -28 -5 -8 8 -23 16 -34 17 -11 2 -21 8 -23 13 -2 5 -10 9 -18 9 -8 0 -14 5
    -14 10 0 6 -9 10 -21 10 -14 0 -19 5 -16 14 4 10 1 13 -9 9 -7 -3 -14 0 -14 6
    0 6 -9 11 -20 11 -11 0 -20 5 -20 10 0 6 -6 10 -14 10 -8 0 -18 9 -21 20 -4
    11 -10 18 -15 15 -5 -3 -15 2 -23 10 -9 8 -21 15 -27 15 -7 0 -9 7 -6 16 3 8
    2 12 -4 9 -6 -3 -10 -1 -10 5 0 6 -4 9 -9 6 -13 -9 -54 31 -45 45 4 8 3 9 -5
    5 -7 -5 -20 1 -30 13 -10 12 -24 21 -30 21 -6 0 -20 15 -31 33 -11 17 -22 31
    -25 30 -15 -8 -25 -1 -25 18 0 13 -4 18 -12 13 -8 -5 -9 -2 -4 11 5 14 3 15
    -6 7 -14 -11 -43 10 -31 22 4 3 1 6 -6 6 -18 0 -41 26 -41 45 0 9 -4 13 -10
    10 -5 -3 -15 5 -22 19 -6 14 -17 26 -24 26 -7 0 -16 9 -19 20 -3 11 -11 20
    -17 20 -5 0 -7 7 -4 16 3 9 2 12 -5 9 -10 -7 -59 42 -59 57 0 5 -18 27 -40 49
    -22 23 -40 48 -40 55 0 8 -4 14 -9 14 -5 0 -14 14 -21 30 -7 17 -16 30 -20 30
    -4 0 -13 14 -20 30 -7 17 -16 30 -20 30 -3 0 -17 23 -30 50 -13 28 -27 50 -32
    50 -5 0 -7 4 -3 9 3 5 -2 17 -11 26 -9 8 -14 24 -11 35 3 12 -4 25 -19 37 -13
    10 -24 26 -24 35 0 10 -4 18 -10 18 -5 0 -10 14 -10 31 0 17 -4 28 -10 24 -6
    -4 -10 5 -10 19 0 14 -4 26 -10 26 -5 0 -10 14 -10 31 0 17 -4 28 -10 24 -6
    -4 -10 5 -10 19 0 14 -4 26 -10 26 -5 0 -10 14 -10 30 0 17 -4 30 -10 30 -5 0
    -10 13 -10 29 0 17 -4 33 -10 36 -5 3 -10 21 -10 40 0 19 -4 37 -10 40 -5 3
    -10 20 -10 36 0 17 -4 38 -9 47 -18 35 -37 272 -21 272 6 0 10 10 10 23 0 30
    61 97 89 97 11 0 21 4 21 10 0 6 319 10 900 10 599 0 900 -3 900 -10z m2933
    -2944 c43 -18 84 -67 98 -119 15 -54 0 -170 -46 -352 -148 -585 -522 -1101
    -1061 -1461 -280 -187 -549 -295 -891 -358 -399 -73 -770 -59 -1163 45 -678
    180 -1320 737 -1615 1401 -101 227 -182 533 -172 650 9 97 57 162 143 193 58
    21 4658 22 4707 1z"/>
    <path d="M3010 6460 c0 -5 5 -10 10 -10 6 0 10 5 10 10 0 6 -4 10 -10 10 -5 0
    -10 -4 -10 -10z"/>
    <path d="M3066 6442 c-3 -5 1 -9 9 -9 8 0 15 4 15 9 0 4 -4 8 -9 8 -6 0 -12
    -4 -15 -8z"/>
    <path d="M1190 6380 c0 -5 5 -10 10 -10 6 0 10 5 10 10 0 6 -4 10 -10 10 -5 0
    -10 -4 -10 -10z"/>
    <path d="M3150 6300 c0 -5 5 -10 10 -10 6 0 10 5 10 10 0 6 -4 10 -10 10 -5 0
    -10 -4 -10 -10z"/>
    <path d="M1230 5920 c0 -5 5 -10 10 -10 6 0 10 5 10 10 0 6 -4 10 -10 10 -5 0
    -10 -4 -10 -10z"/>
    <path d="M1350 5780 c0 -5 5 -10 10 -10 6 0 10 5 10 10 0 6 -4 10 -10 10 -5 0
    -10 -4 -10 -10z"/>
    <path d="M1350 5740 c0 -5 5 -10 10 -10 6 0 10 5 10 10 0 6 -4 10 -10 10 -5 0
    -10 -4 -10 -10z"/>
    <path d="M1355 5660 c3 -5 8 -10 11 -10 2 0 4 5 4 10 0 6 -5 10 -11 10 -5 0
    -7 -4 -4 -10z"/>
    <path d="M1410 5620 c0 -5 5 -10 10 -10 6 0 10 5 10 10 0 6 -4 10 -10 10 -5 0
    -10 -4 -10 -10z"/>
    <path d="M1470 5520 c0 -5 5 -10 10 -10 6 0 10 5 10 10 0 6 -4 10 -10 10 -5 0
    -10 -4 -10 -10z"/>
    <path d="M1490 5420 c0 -5 5 -10 10 -10 6 0 10 5 10 10 0 6 -4 10 -10 10 -5 0
    -10 -4 -10 -10z"/>
    <path d="M1570 5300 c0 -5 5 -10 10 -10 6 0 10 5 10 10 0 6 -4 10 -10 10 -5 0
    -10 -4 -10 -10z"/>
    <path d="M1870 4980 c0 -5 5 -10 10 -10 6 0 10 5 10 10 0 6 -4 10 -10 10 -5 0
    -10 -4 -10 -10z"/>
    <path d="M1990 4860 c0 -5 5 -10 10 -10 6 0 10 5 10 10 0 6 -4 10 -10 10 -5 0
    -10 -4 -10 -10z"/>
    <path d="M2041 4794 c-18 -21 -6 -30 14 -11 8 9 15 18 15 21 0 11 -15 5 -29
    -10z"/>
    <path d="M2170 4660 c0 -5 5 -10 10 -10 6 0 10 5 10 10 0 6 -4 10 -10 10 -5 0
    -10 -4 -10 -10z"/>
    <path d="M2315 4560 c3 -5 8 -10 11 -10 2 0 4 5 4 10 0 6 -5 10 -11 10 -5 0
    -7 -4 -4 -10z"/>
    <path d="M2470 4500 c0 -5 5 -10 10 -10 6 0 10 5 10 10 0 6 -4 10 -10 10 -5 0
    -10 -4 -10 -10z"/>
    <path d="M2610 4480 c0 -5 5 -10 10 -10 6 0 10 5 10 10 0 6 -4 10 -10 10 -5 0
    -10 -4 -10 -10z"/>
    <path d="M2490 4440 c0 -5 5 -10 10 -10 6 0 10 5 10 10 0 6 -4 10 -10 10 -5 0
    -10 -4 -10 -10z"/>
    <path d="M2570 4440 c0 -5 5 -10 10 -10 6 0 10 5 10 10 0 6 -4 10 -10 10 -5 0
    -10 -4 -10 -10z"/>
    <path d="M2750 4321 c0 -5 7 -11 14 -14 10 -4 13 -1 9 9 -6 15 -23 19 -23 5z"/>
    <path d="M3155 4319 c-11 -16 -1 -19 13 -3 7 8 8 14 3 14 -5 0 -13 -5 -16 -11z"/>
    <path d="M3061 4294 c-18 -21 -6 -30 14 -11 8 9 15 18 15 21 0 11 -15 5 -29
    -10z"/>
    <path d="M2996 4262 c-3 -5 1 -9 9 -9 8 0 12 4 9 9 -3 4 -7 8 -9 8 -2 0 -6 -4
    -9 -8z"/>
    </g>
</svg>