<svg version="1.1" id="Layer_1" xmlns="http://www.w3.org/2000/svg" xmlns:xlink="http://www.w3.org/1999/xlink" x="0px" y="0px"
	 width="261.386px" height="380.521px" viewBox="0 0 261.386 380.521" enable-background="new 0 0 261.386 380.521"
	 xml:space="preserve">
	<g>
		<path fill-rule="evenodd" clip-rule="evenodd" fill="#010000" d="M136.8,380.521c-4.2,0-8.4,0-12.6,0
			c-0.173-0.118-0.338-0.322-0.521-0.34c-2.718-0.258-5.449-0.405-8.155-0.75c-4.286-0.545-8.603-0.995-12.822-1.886
			c-7.414-1.565-14.635-3.804-21.663-6.709c-15.478-6.396-29.025-15.657-40.967-27.312c-6.124-5.977-11.727-12.42-16.698-19.407
			c-5.843-8.214-10.677-16.968-14.346-26.356c-3.566-9.126-5.957-18.547-7.289-28.265c-0.77-5.614-1.382-11.233-1.358-16.891
			c0.191-43.957-0.501-87.917,0.352-131.873c0.039-2.022,0.117-4.063,0.43-6.056c0.726-4.623,1.528-9.238,2.443-13.827
			c1.794-8.998,4.875-17.579,8.788-25.854c5.284-11.176,12.126-21.338,20.481-30.44c5.021-5.47,10.259-10.73,15.988-15.492
			c5.922-4.921,12.185-9.329,18.913-13.057c7.646-4.236,15.637-7.695,24.014-10.233c10.221-3.098,20.63-5.102,31.331-5.449
			c0.363-0.012,0.72-0.213,1.08-0.326c4.2,0,8.4,0,12.6,0c0.18,0.112,0.353,0.307,0.541,0.323c3.083,0.259,6.182,0.386,9.249,0.767
			c3.936,0.487,7.861,1.093,11.766,1.791c11.671,2.085,22.614,6.271,33.063,11.779c8.62,4.543,16.558,10.095,23.907,16.504
			c8.284,7.222,15.733,15.204,22.193,24.095c6.378,8.779,11.666,18.165,15.443,28.36c3.674,9.92,6.466,20.062,7.337,30.652
			c0.404,4.923,1.023,9.854,1.034,14.781c0.085,39.117,0.034,78.235,0.06,117.353c0.005,6.81-0.199,13.591-1.066,20.36
			c-0.688,5.36-1.617,10.656-2.948,15.892c-2.408,9.472-5.751,18.581-10.354,27.219c-4.304,8.073-9.439,15.569-15.225,22.655
			c-5.36,6.565-11.281,12.578-17.793,17.953c-4.592,3.792-9.499,7.235-14.465,10.535c-7.604,5.054-15.822,8.929-24.44,11.969
			c-5.933,2.092-11.985,3.73-18.146,4.955c-3.189,0.635-6.42,1.107-9.653,1.469c-3.372,0.375-6.77,0.525-10.153,0.792
			C137.025,380.213,136.917,380.411,136.8,380.521z M130.678,122.43c24.115,0,48.23,0,72.346,0c3.479,0,6.959,0.02,10.438-0.017
			c0.76-0.008,1.56-0.103,2.266-0.36c2.947-1.076,4.276-3.401,4.22-6.371c-0.048-2.496-0.333-5.025-0.858-7.466
			c-1.917-8.915-5.036-17.403-9.714-25.253c-8.686-14.576-20.467-26.058-35.151-34.511c-4.338-2.497-8.947-4.492-13.728-6.064
			c-3.67-1.207-7.322-2.436-11.176-2.933c-3.309-0.427-6.603-1.085-9.924-1.271c-4.307-0.241-8.634-0.091-12.952-0.152
			c-6.497-0.091-12.884,0.797-19.146,2.412c-3.371,0.87-6.634,2.177-9.913,3.378c-5.381,1.972-10.41,4.654-15.206,7.776
			c-6.111,3.979-11.578,8.709-16.589,14.005c-6.149,6.498-11.519,13.527-15.604,21.521c-4.304,8.424-6.987,17.348-8.474,26.655
			c-0.318,1.994-0.078,3.987,1.006,5.711c1.384,2.203,3.536,2.954,6.095,2.952C75.968,122.421,103.323,122.43,130.678,122.43z
			M131.896,252.572c-25.735,0-51.469-0.002-77.204,0.004c-1.557,0.001-3.116,0.03-4.671,0.1c-6.484,0.292-8.915,4.884-8.177,10.062
			c1.216,8.528,3.896,16.646,7.792,24.341c5.963,11.775,14.225,21.693,24.376,30.079c15.134,12.502,32.56,19.103,52.108,20.14
			c10.264,0.545,20.364-0.713,30.25-3.459c3.619-1.005,7.204-2.263,10.643-3.773c11.325-4.976,21.102-12.189,29.665-21.085
			c12.401-12.884,20.079-28.166,23.219-45.746c0.336-1.881,0.622-3.762,0.131-5.699c-0.705-2.785-2.659-4.584-5.535-4.828
			c-1.014-0.086-2.035-0.129-3.053-0.129C184.924,252.57,158.411,252.571,131.896,252.572z M143.279,187.801
			c0,4.917,0,9.835,0,14.752c0,6.057-0.032,12.113,0.016,18.17c0.024,3.224,1.18,5.93,4.381,7.143
			c1.586,0.601,3.361,0.972,5.053,0.979c15.352,0.073,30.703,0.043,46.055,0.043c4.678,0,9.355,0.042,14.032-0.017
			c2.719-0.034,5.058-0.953,6.377-3.536c1.124-2.199,1.496-4.596,1.05-6.991c-0.655-3.518-1.457-7.015-2.352-10.48
			c-3.307-12.811-9.702-23.994-18.324-33.916c-6.851-7.884-14.751-14.572-23.902-19.684c-4.855-2.712-9.966-4.841-15.433-5.992
			c-3.008-0.634-6.021-1.354-9.07-1.646c-3.022-0.29-5.775,0.633-6.904,3.906c-0.593,1.716-0.921,3.61-0.936,5.427
			C143.236,166.572,143.279,177.187,143.279,187.801z M117,187.979c0-8.518,0-17.036,0-25.553c0-2.64,0.105-5.285-0.028-7.917
			c-0.17-3.338-1.464-6.131-4.909-7.168c-1.8-0.542-3.756-0.781-5.642-0.787c-18.895-0.055-37.79-0.038-56.685-0.02
			c-1.071,0.001-2.147,0.154-3.211,0.304c-2.114,0.296-3.609,1.43-4.48,3.398c-0.875,1.974-0.975,3.998-0.704,6.125
			c1.068,8.379,3.43,16.371,7.046,23.994c3.787,7.983,8.72,15.202,14.65,21.741c10.594,11.681,22.788,20.949,38.324,25.037
			c3.051,0.804,6.199,1.353,9.337,1.672c2.796,0.285,4.826-1.293,5.579-4.026c0.423-1.539,0.684-3.174,0.692-4.768
			C117.029,209.333,117,198.656,117,187.979z"/>
		<path fill-rule="evenodd" clip-rule="evenodd" fill="#FD0000" d="M130.678,122.43c-27.355,0-54.71-0.009-82.064,0.015
			c-2.559,0.002-4.71-0.749-6.095-2.952c-1.083-1.725-1.324-3.718-1.006-5.711c1.486-9.308,4.17-18.231,8.474-26.655
			c4.084-7.994,9.455-15.024,15.604-21.521C70.602,60.309,76.068,55.579,82.18,51.6c4.796-3.123,9.825-5.805,15.206-7.776
			c3.278-1.202,6.542-2.509,9.913-3.378c6.262-1.615,12.649-2.503,19.146-2.412c4.318,0.061,8.646-0.089,12.952,0.152
			c3.321,0.186,6.615,0.844,9.924,1.271c3.854,0.497,7.506,1.726,11.176,2.933c4.78,1.572,9.39,3.567,13.728,6.064
			c14.685,8.453,26.466,19.936,35.151,34.511c4.678,7.85,7.797,16.338,9.714,25.253c0.525,2.44,0.811,4.97,0.858,7.466
			c0.057,2.97-1.272,5.294-4.22,6.371c-0.706,0.258-1.506,0.352-2.266,0.36c-3.479,0.037-6.958,0.017-10.438,0.017
			C178.909,122.43,154.793,122.43,130.678,122.43z"/>
		<path fill-rule="evenodd" clip-rule="evenodd" fill="#FEFE00" d="M131.896,252.572c26.515-0.001,53.028-0.002,79.543,0.005
			c1.018,0,2.039,0.043,3.053,0.129c2.876,0.244,4.83,2.043,5.535,4.828c0.491,1.938,0.205,3.818-0.131,5.699
			c-3.14,17.58-10.817,32.862-23.219,45.746c-8.563,8.896-18.34,16.109-29.665,21.085c-3.438,1.511-7.023,2.769-10.643,3.773
			c-9.886,2.746-19.985,4.004-30.25,3.459c-19.549-1.037-36.975-7.638-52.108-20.14c-10.151-8.386-18.413-18.304-24.376-30.079
			c-3.896-7.694-6.576-15.813-7.792-24.341c-0.738-5.178,1.692-9.77,8.177-10.062c1.556-0.069,3.115-0.099,4.671-0.1
			C80.427,252.57,106.161,252.572,131.896,252.572z"/>
		<path fill-rule="evenodd" clip-rule="evenodd" fill="#01CA00" d="M143.279,187.801c0-10.614-0.043-21.229,0.042-31.842
			c0.015-1.817,0.343-3.71,0.936-5.427c1.129-3.273,3.882-4.196,6.904-3.906c3.049,0.292,6.063,1.012,9.07,1.646
			c5.467,1.151,10.577,3.28,15.433,5.992c9.151,5.112,17.052,11.8,23.902,19.684c8.622,9.922,15.018,21.105,18.324,33.916
			c0.895,3.466,1.696,6.963,2.352,10.48c0.446,2.396,0.074,4.792-1.05,6.991c-1.319,2.583-3.658,3.502-6.377,3.536
			c-4.677,0.059-9.354,0.017-14.032,0.017c-15.352,0-30.703,0.03-46.055-0.043c-1.691-0.008-3.467-0.379-5.053-0.979
			c-3.201-1.213-4.356-3.919-4.381-7.143c-0.048-6.057-0.016-12.113-0.016-18.17C143.279,197.636,143.279,192.718,143.279,187.801z"
			/>
		<path fill-rule="evenodd" clip-rule="evenodd" fill="#0098FD" d="M117,187.979c0,10.677,0.028,21.355-0.031,32.031
			c-0.009,1.594-0.269,3.229-0.692,4.768c-0.752,2.733-2.783,4.312-5.579,4.026c-3.139-0.319-6.287-0.868-9.337-1.672
			c-15.536-4.088-27.73-13.356-38.324-25.037c-5.93-6.539-10.863-13.758-14.65-21.741c-3.616-7.623-5.978-15.614-7.046-23.994
			c-0.271-2.127-0.171-4.15,0.704-6.125c0.872-1.968,2.367-3.102,4.48-3.398c1.064-0.149,2.14-0.303,3.211-0.304
			c18.895-0.018,37.79-0.035,56.685,0.02c1.886,0.005,3.842,0.245,5.642,0.787c3.445,1.038,4.739,3.831,4.909,7.168
			c0.134,2.632,0.028,5.277,0.028,7.917C117,170.943,117,179.46,117,187.979z"/>
	</g>
</svg>
